# xmcd CD database file
# Copyright (C) 1995-1998 Ti Kan
#
# Track frame offsets:
#	150
#	35570
#	52116
#	71574
#	88445
#	104300
#	120069
#	133463
#	161105
#	181338
#	193468
#	208817
#	231061
#	254104
#	292602
#	308647
#
# Disc length: 4423 seconds
#
# Revision: 2
# Processed by: cddbd v1.4PL0 Copyright (c) Steve Scherf et al.
# Submitted via: CDex 1.30Release
#
DISCID=f6114510
DTITLE=Popa Chubby - The first cuts
DYEAR=1900
DGENRE=Blues
TTITLE0=I can't stand it baby
TTITLE1=I love your shoes
TTITLE2=Angel on my shoulder
TTITLE3=Mind your stuff
TTITLE4=Money
TTITLE5=Fell my eyes on you
TTITLE6=Let the jam begin
TTITLE7=Lipservice
TTITLE8=Every girl I see
TTITLE9=Working class blues
TTITLE10=Show me
TTITLE11=Stoop down baby
TTITLE12=Handyman
TTITLE13=San Catri
TTITLE14=Lookin' for one kiss
TTITLE15=Rain on my mind
EXTD=ID3G:   0
EXTT0=
EXTT1=
EXTT2=
EXTT3=
EXTT4=
EXTT5=
EXTT6=
EXTT7=
EXTT8=
EXTT9=
EXTT10=
EXTT11=
EXTT12=
EXTT13=
EXTT14=
EXTT15=
PLAYORDER=
